# xmcd
#
# Track frame offsets: 
#        150
#        13920
#        29613
#        45791
#        62514
#        87661
#        102517
#        129551
#        146614
#        161115
#        181640
#        193101
#
# Disc length: 3062 seconds
#
# Revision: 0
# Processed by: cddbd v1.5.2PL0 Copyright (c) Steve Scherf et al.
# Submitted via: ExactAudioCopy v0.95b4
#
DISCID=a30bf40c
DTITLE=Psychedelic Cowboys - Jangle Waltz
DYEAR=2007
DGENRE=Country
TTITLE0=Jangle 1
TTITLE1=All Night
TTITLE2=Hey Uncle Sam
TTITLE3=Homw Many Guys
TTITLE4=Vive Fresth Incident - It's So Hard Gene
TTITLE5=Take Me Like I Am
TTITLE6=Little Sipasake And The Fate Of Lonesome Wayne
TTITLE7=Aone Again Or
TTITLE8=Don't Lean On Me
TTITLE9=Last DWI
TTITLE10=Jangle 2 (Reprise)
TTITLE11=Time Between Sixth And Drexel Or Ithream Gets The Last Laugh
EXTD=
EXTT0=
EXTT1=
EXTT2=
EXTT3=
EXTT4=
EXTT5=
EXTT6=
EXTT7=
EXTT8=
EXTT9=
EXTT10=
EXTT11=
PLAYORDER=
